<svg id="Capa_1" data-name="Capa 1" xmlns="http://www.w3.org/2000/svg" viewBox="0 0 47.28 49"><defs><style>.cls-1{fill:#322983;fill-rule:evenodd;}</style></defs><path class="cls-1" d="M41.12,29.44c-.91-.44-5.3-2.6-6.13-2.89s-1.42-.44-2,.45-2.33,2.89-2.84,3.47-1.05.67-1.95.22A24.15,24.15,0,0,1,21,26.28a26.18,26.18,0,0,1-5-6.14c-.51-.89-.05-1.37.39-1.81s.89-1,1.35-1.56l.33-.43a9.3,9.3,0,0,0,.56-1.06,1.59,1.59,0,0,0-.07-1.56c-.22-.44-2-4.82-2.77-6.6s-1.48-1.47-2-1.47-1.11-.08-1.71-.08A3.31,3.31,0,0,0,9.68,6.68,10,10,0,0,0,6.55,14.1a11.46,11.46,0,0,0,.46,3,20.38,20.38,0,0,0,3.2,6.16c.44.58,6.19,9.85,15.29,13.42s9.12,2.36,10.76,2.21,5.3-2.14,6-4.22a7.42,7.42,0,0,0,.53-4.23C42.61,30.11,42,29.89,41.12,29.44Z"/></svg>